<?xml version="1.0" encoding="iso-8859-1"?>
<!-- Generator: Adobe Illustrator 19.0.0, SVG Export Plug-In . SVG Version: 6.00 Build 0)  -->
<svg version="1.1" id="Capa_1" xmlns="http://www.w3.org/2000/svg" xmlns:xlink="http://www.w3.org/1999/xlink" x="0px" y="0px"
	 viewBox="0 0 511.999 511.999" style="enable-background:new 0 0 511.999 511.999;" xml:space="preserve">
<g>
	<g>
		<path d="M476.867,62.557H200.904c-4.167,0-7.544,3.377-7.544,7.544s3.377,7.544,7.544,7.544h275.963
			c11.053,0,20.045,8.993,20.045,20.045v182.151h-28.22c-4.167,0-7.544,3.377-7.544,7.544s3.377,7.544,7.544,7.544h28.22v49.877
			c0,11.053-8.993,20.045-20.045,20.045H327.885h-83.617H179.07V294.93h260.065c4.167,0,7.544-3.377,7.544-7.544
			s-3.377-7.544-7.544-7.544H179.069V256V54.276c0-11.178-9.095-20.272-20.273-20.272h-12.967H33.24H20.273
			C9.095,34.005,0,43.099,0,54.276V256v193.328v8.395c0,11.178,9.095,20.272,20.273,20.272h138.523
			c11.178,0,20.273-9.094,20.273-20.272v-8.395V379.94h57.654v52.414h-12.935c-12.81,0-23.232,10.422-23.232,23.232v14.865
			c0,4.167,3.377,7.544,7.544,7.544h155.951c4.167,0,7.544-3.377,7.544-7.544v-14.865c0-12.81-10.421-23.232-23.231-23.232h-12.936
			v-19.237c0-4.167-3.377-7.544-7.544-7.544s-7.544,3.377-7.544,7.544v19.237h-68.53V379.94h68.53v4.259
			c0,4.167,3.377,7.544,7.544,7.544s7.544-3.377,7.544-7.544v-4.259h141.438c19.372,0,35.133-15.761,35.133-35.133V97.69
			C512,78.318,496.239,62.557,476.867,62.557z M129.369,49.093l-6.676,7.745c-1.674,1.943-4.105,3.057-6.67,3.057H62.351
			c-2.633,0-5.108-1.164-6.786-3.192l-6.294-7.61H129.369z M163.98,457.721c0.002,2.86-2.324,5.186-5.184,5.186H20.273
			c-2.859,0-5.185-2.326-5.185-5.184v-5.561l44.396-50.774c3.406-3.898,4.833-9.253,3.817-14.324L55.125,345
			c-0.816-4.085-4.79-6.735-8.877-5.918c-4.085,0.817-6.735,4.792-5.918,8.877l8.177,42.065c0.101,0.507-0.042,1.043-0.383,1.433
			L15.088,429.24V277.503l14.299,17.873c0.166,0.207,0.282,0.456,0.334,0.718l3.583,17.917c0.817,4.085,4.792,6.742,8.877,5.918
			c4.085-0.817,6.735-4.792,5.918-8.877l-3.583-17.915c-0.523-2.619-1.681-5.105-3.349-7.188l-26.08-32.596V54.276
			c0-2.858,2.326-5.184,5.185-5.184h9.417L43.94,66.32c4.555,5.505,11.265,8.663,18.411,8.663h53.673
			c6.959,0,13.556-3.023,18.099-8.294l15.164-17.596h9.509c2.859,0,5.185,2.326,5.185,5.184v199.076l-26.079,32.595
			c-1.669,2.084-2.827,4.571-3.35,7.187l-18.785,93.927c-1.015,5.072,0.412,10.427,3.818,14.325l44.395,50.773V457.721z
			 M163.982,429.24l-33.035-37.781c-0.342-0.391-0.485-0.927-0.384-1.434c0.001-0.001,0.001-0.001,0.001-0.002l18.785-93.929
			c0.052-0.26,0.168-0.509,0.335-0.717l14.298-17.872V429.24z M327.885,447.441h20.48c4.49,0,8.143,3.653,8.143,8.144v7.321H215.645
			v-7.321c0-4.491,3.653-8.144,8.144-8.144h20.479H327.885z"/>
	</g>
</g>
<g>
	<g>
		<circle cx="466.29" cy="328.709" r="7.544"/>
	</g>
</g>
<g>
	<g>
		<circle cx="439.13" cy="328.709" r="7.544"/>
	</g>
</g>
<g>
	<g>
		<circle cx="412.31" cy="328.709" r="7.544"/>
	</g>
</g>
<g>
	<g>
		<path d="M286.076,304.754c-12.284,0-22.278,9.994-22.278,22.278s9.994,22.278,22.278,22.278s22.278-9.994,22.278-22.278
			S298.36,304.754,286.076,304.754z M286.076,334.222c-3.964,0-7.19-3.226-7.19-7.19s3.226-7.19,7.19-7.19s7.19,3.226,7.19,7.19
			S290.04,334.222,286.076,334.222z"/>
	</g>
</g>
<g>
	<g>
		<path d="M72.135,433.401H54.323c-4.167,0-7.544,3.377-7.544,7.544s3.377,7.544,7.544,7.544h17.812
			c4.167,0,7.544-3.377,7.544-7.544S76.301,433.401,72.135,433.401z"/>
	</g>
</g>
<g>
	<g>
		<path d="M118.914,433.401h-17.812c-4.167,0-7.544,3.377-7.544,7.544s3.377,7.544,7.544,7.544h17.812
			c4.167,0,7.544-3.377,7.544-7.544S123.081,433.401,118.914,433.401z"/>
	</g>
</g>
<g>
	<g>
		<path d="M87.561,253.688c-15.114,0-27.41,12.296-27.41,27.41s12.296,27.41,27.41,27.41c15.114,0,27.41-12.296,27.41-27.41
			C114.971,265.985,102.675,253.688,87.561,253.688z M87.561,293.42c-6.794,0-12.322-5.527-12.322-12.322
			s5.527-12.322,12.322-12.322c6.794,0,12.322,5.527,12.322,12.322S94.356,293.42,87.561,293.42z"/>
	</g>
</g>
<g>
	<g>
		<path d="M140.263,86.718H38.807c-7.23,0-13.11,5.881-13.11,13.11v14.946c-0.001,7.229,5.88,13.11,13.11,13.11h101.456
			c7.23,0,13.11-5.881,13.11-13.109V99.828C153.373,92.598,147.492,86.718,140.263,86.718z M138.285,112.797H40.784v-10.991h97.501
			V112.797z"/>
	</g>
</g>
<g>
	<g>
		<path d="M140.263,141.136H38.807c-7.23,0-13.11,5.881-13.11,13.11v14.946c0,7.229,5.881,13.109,13.11,13.109h101.456
			c7.229,0.001,13.11-5.88,13.11-13.109v-14.946C153.373,147.016,147.492,141.136,140.263,141.136z M138.285,167.214H40.784v-10.991
			h97.501V167.214z"/>
	</g>
</g>
<g>
</g>
<g>
</g>
<g>
</g>
<g>
</g>
<g>
</g>
<g>
</g>
<g>
</g>
<g>
</g>
<g>
</g>
<g>
</g>
<g>
</g>
<g>
</g>
<g>
</g>
<g>
</g>
<g>
</g>
</svg>
